<svg xmlns="http://www.w3.org/2000/svg" xmlns:xlink="http://www.w3.org/1999/xlink" width="1360" height="1760"><g transform="translate(0 0)"><path d="M380 1100c2.76 0 5 2.24 5 5v160c0 2.76 2.24 5 5 5h15c2.76 0 3.42 1.58 1.46 3.54l-42.92 42.92c-1.96 1.96-5.12 1.96-7.08 0l-42.92-42.92c-1.96-1.96-1.3-3.54 1.46-3.54h15c2.76 0 5-2.24 5-5v-160c0-2.76 2.24-5 5-5zM380 820c2.76 0 5 2.24 5 5v160c0 2.76 2.24 5 5 5h15c2.76 0 3.42 1.58 1.46 3.54l-42.92 42.92c-1.96 1.96-5.12 1.96-7.08 0l-42.92-42.92c-1.96-1.96-1.3-3.54 1.46-3.54h15c2.76 0 5-2.24 5-5V825c0-2.76 2.24-5 5-5zM380 260c2.76 0 5 2.24 5 5v160c0 2.76 2.24 5 5 5h15c2.76 0 3.42 1.58 1.46 3.54l-42.92 42.92c-1.96 1.96-5.12 1.96-7.08 0l-42.92-42.92c-1.96-1.96-1.3-3.54 1.46-3.54h15c2.76 0 5-2.24 5-5V265c0-2.76 2.24-5 5-5zM380 540c2.76 0 5 2.24 5 5v160c0 2.76 2.24 5 5 5h15c2.76 0 3.42 1.58 1.46 3.54l-42.92 42.92c-1.96 1.96-5.12 1.96-7.08 0l-42.92-42.92c-1.96-1.96-1.3-3.54 1.46-3.54h15c2.76 0 5-2.24 5-5V545c0-2.76 2.24-5 5-5z" stroke="#000" stroke-width="2" fill="#ccc"/><path d="M220 225c0-2.76 2.24-5 5-5h270c2.76 0 5 2.24 5 5v150c0 2.76-2.24 5-5 5H225c-2.76 0-5-2.24-5-5z" stroke="#000" stroke-width="2" fill="#f6f6f6"/><use xlink:href="#a" transform="matrix(1,0,0,1,220,220) translate(64.90123456790124 54.222222222222214)"/><use xlink:href="#b" transform="matrix(1,0,0,1,220,220) translate(74.49382716049382 91.55555555555554)"/><use xlink:href="#c" transform="matrix(1,0,0,1,220,220) translate(77.12962962962963 121.77777777777777)"/><use xlink:href="#d" transform="matrix(1,0,0,1,220,220) translate(164.6604938271605 121.77777777777777)"/><path d="M220 785c0-2.76 2.24-5 5-5h270c2.76 0 5 2.24 5 5v150c0 2.76-2.24 5-5 5H225c-2.76 0-5-2.24-5-5z" stroke="#000" stroke-width="2" fill="#f6f6f6"/><use xlink:href="#e" transform="matrix(1,0,0,1,220,780) translate(27.006172839506178 72.88888888888889)"/><use xlink:href="#f" transform="matrix(1,0,0,1,220,780) translate(144.19135802469134 72.88888888888889)"/><use xlink:href="#c" transform="matrix(1,0,0,1,220,780) translate(77.12962962962963 103.11111111111111)"/><use xlink:href="#g" transform="matrix(1,0,0,1,220,780) translate(164.6604938271605 103.11111111111111)"/><path d="M220 1065c0-2.76 2.24-5 5-5h270c2.76 0 5 2.24 5 5v150c0 2.76-2.24 5-5 5H225c-2.76 0-5-2.24-5-5z" stroke="#000" stroke-width="2" fill="#f6f6f6"/><use xlink:href="#h" transform="matrix(1,0,0,1,220,1060) translate(70.08641975308643 54.222222222222214)"/><use xlink:href="#i" transform="matrix(1,0,0,1,220,1060) translate(140.8641975308642 54.222222222222214)"/><use xlink:href="#j" transform="matrix(1,0,0,1,220,1060) translate(60.623456790123456 91.55555555555554)"/><use xlink:href="#c" transform="matrix(1,0,0,1,220,1060) translate(77.12962962962963 121.77777777777777)"/><use xlink:href="#k" transform="matrix(1,0,0,1,220,1060) translate(164.6604938271605 121.77777777777777)"/><path d="M530 400c-2.76 0-5 2.24-5 5v30c0 2.76-2.24 5-5 5 2.76 0 5 2.24 5 5v30c0 2.76 2.24 5 5 5m380 0c2.76 0 5-2.24 5-5v-30c0-2.76 2.24-5 5-5-2.76 0-5-2.24-5-5v-30c0-2.76-2.24-5-5-5" stroke="#000" stroke-width="2" fill="none"/><path d="M220 505c0-2.76 2.24-5 5-5h270c2.76 0 5 2.24 5 5v150c0 2.76-2.24 5-5 5H225c-2.76 0-5-2.24-5-5z" stroke="#000" stroke-width="2" fill="#f6f6f6"/><use xlink:href="#e" transform="matrix(1,0,0,1,220,500) translate(25.83950617283952 72.88888888888889)"/><use xlink:href="#l" transform="matrix(1,0,0,1,220,500) translate(143.0246913580247 72.88888888888889)"/><use xlink:href="#m" transform="matrix(1,0,0,1,220,500) translate(213.80246913580245 72.88888888888889)"/><use xlink:href="#c" transform="matrix(1,0,0,1,220,500) translate(77.12962962962963 103.11111111111111)"/><use xlink:href="#n" transform="matrix(1,0,0,1,220,500) translate(164.6604938271605 103.11111111111111)"/><path d="M520 405c0-2.76 2.24-5 5-5h370c2.76 0 5 2.24 5 5v68.22c0 2.76-2.24 5-5 5H525c-2.76 0-5-2.24-5-5z" fill="none"/><g><use xlink:href="#o" transform="matrix(1,0,0,1,525,405) translate(18.814814814814817 39.833333333333336)"/><use xlink:href="#p" transform="matrix(1,0,0,1,525,405) translate(53.333333333333336 39.833333333333336)"/><use xlink:href="#q" transform="matrix(1,0,0,1,525,405) translate(186.3703703703704 39.833333333333336)"/><use xlink:href="#r" transform="matrix(1,0,0,1,525,405) translate(223.40740740740745 39.833333333333336)"/></g><path d="M532.5 670c-3.45 0-6.25 2.8-6.25 6.25v37.5c0 3.45-2.8 6.25-6.25 6.25 3.45 0 6.25 2.8 6.25 6.25v37.5c0 3.45 2.8 6.25 6.25 6.25m375 0c3.45 0 6.25-2.8 6.25-6.25v-37.5c0-3.45 2.8-6.25 6.25-6.25-3.45 0-6.25-2.8-6.25-6.25v-37.5c0-3.45-2.8-6.25-6.25-6.25" stroke="#000" stroke-width="2" fill="none"/><path d="M520 675c0-2.76 2.24-5 5-5h370c2.76 0 5 2.24 5 5v90c0 2.76-2.24 5-5 5H525c-2.76 0-5-2.24-5-5z" fill="none"/><g><use xlink:href="#o" transform="matrix(1,0,0,1,525,675) translate(18.814814814814817 34.333333333333336)"/><use xlink:href="#p" transform="matrix(1,0,0,1,525,675) translate(53.333333333333336 34.333333333333336)"/><use xlink:href="#q" transform="matrix(1,0,0,1,525,675) translate(186.3703703703704 34.333333333333336)"/><use xlink:href="#s" transform="matrix(1,0,0,1,525,675) translate(223.40740740740745 34.333333333333336)"/><use xlink:href="#o" transform="matrix(1,0,0,1,525,675) translate(18.814814814814817 66.33333333333334)"/><use xlink:href="#t" transform="matrix(1,0,0,1,525,675) translate(53.333333333333336 66.33333333333334)"/><use xlink:href="#u" transform="matrix(1,0,0,1,525,675) translate(167.11111111111111 66.33333333333334)"/><use xlink:href="#v" transform="matrix(1,0,0,1,525,675) translate(291.4074074074074 66.33333333333334)"/></g><path d="M539.13 920c-5.3 0-9.57 4.28-9.57 9.56v57.38c0 5.28-4.28 9.56-9.56 9.56 5.28 0 9.56 4.28 9.56 9.56v57.38c0 5.28 4.28 9.56 9.57 9.56m361.75 0c5.28 0 9.56-4.28 9.56-9.56v-57.38c0-5.28 4.28-9.56 9.56-9.56-5.28 0-9.56-4.28-9.56-9.56v-57.38c0-5.28-4.28-9.56-9.57-9.56" stroke="#000" stroke-width="2" fill="none"/><path d="M520 925c0-2.76 2.24-5 5-5h390c2.76 0 5 2.24 5 5v143c0 2.76-2.24 5-5 5H525c-2.76 0-5-2.24-5-5z" fill="none"/><g><use xlink:href="#o" transform="matrix(1,0,0,1,525,925) translate(18.814814814814817 28.833333333333336)"/><use xlink:href="#p" transform="matrix(1,0,0,1,525,925) translate(53.333333333333336 28.833333333333336)"/><use xlink:href="#q" transform="matrix(1,0,0,1,525,925) translate(186.3703703703704 28.833333333333336)"/><use xlink:href="#s" transform="matrix(1,0,0,1,525,925) translate(223.40740740740745 28.833333333333336)"/><use xlink:href="#o" transform="matrix(1,0,0,1,525,925) translate(18.814814814814817 60.833333333333336)"/><use xlink:href="#t" transform="matrix(1,0,0,1,525,925) translate(53.333333333333336 60.833333333333336)"/><use xlink:href="#u" transform="matrix(1,0,0,1,525,925) translate(167.11111111111111 60.833333333333336)"/><use xlink:href="#w" transform="matrix(1,0,0,1,525,925) translate(291.4074074074074 60.833333333333336)"/><use xlink:href="#x" transform="matrix(1,0,0,1,525,925) translate(18.814814814814817 92.83333333333334)"/><use xlink:href="#y" transform="matrix(1,0,0,1,525,925) translate(53.333333333333336 92.83333333333334)"/><use xlink:href="#z" transform="matrix(1,0,0,1,525,925) translate(180.51851851851853 92.83333333333334)"/><use xlink:href="#A" transform="matrix(1,0,0,1,525,925) translate(292.962962962963 92.83333333333334)"/><use xlink:href="#B" transform="matrix(1,0,0,1,525,925) translate(53.333333333333336 124.83333333333334)"/></g><path d="M456 1340c35.35 0 64 22.4 64 50s-28.65 50-64 50H264c-35.35 0-64-22.4-64-50s28.65-50 64-50z" stroke="#000" stroke-width="2" fill="#f6f6f6"/><path d="M200 1325c0-2.76 2.24-5 5-5h310c2.76 0 5 2.24 5 5v130c0 2.76-2.24 5-5 5H205c-2.76 0-5-2.24-5-5z" fill="none"/><g><use xlink:href="#C" transform="matrix(1,0,0,1,205,1325) translate(10.395061728395063 72.55555555555556)"/><use xlink:href="#D" transform="matrix(1,0,0,1,205,1325) translate(75.35185185185185 72.55555555555556)"/><use xlink:href="#E" transform="matrix(1,0,0,1,205,1325) translate(98.33333333333333 72.55555555555556)"/><use xlink:href="#F" transform="matrix(1,0,0,1,205,1325) translate(198.96913580246914 72.55555555555556)"/></g><defs><path d="M185-189c-5-48-123-54-124 2 14 75 158 14 163 119 3 78-121 87-175 55-17-10-28-26-33-46l33-7c5 56 141 63 141-1 0-78-155-14-162-118-5-82 145-84 179-34 5 7 8 16 11 25" id="G"/><path d="M206 0h-36l-40-164L89 0H53L-1-190h32L70-26l43-164h34l41 164 42-164h31" id="H"/><path d="M100-194c63 0 86 42 84 106H49c0 40 14 67 53 68 26 1 43-12 49-29l28 8c-11 28-37 45-77 45C44 4 14-33 15-96c1-61 26-98 85-98zm52 81c6-60-76-77-97-28-3 7-6 17-6 28h103" id="I"/><path d="M115-194c55 1 70 41 70 98S169 2 115 4C84 4 66-9 55-30l1 105H24l-1-265h31l2 30c10-21 28-34 59-34zm-8 174c40 0 45-34 45-75s-6-73-45-74c-42 0-51 32-51 76 0 43 10 73 51 73" id="J"/><path d="M96-169c-40 0-48 33-48 73s9 75 48 75c24 0 41-14 43-38l32 2c-6 37-31 61-74 61-59 0-76-41-82-99-10-93 101-131 147-64 4 7 5 14 7 22l-32 3c-4-21-16-35-41-35" id="K"/><path d="M179-190L93 31C79 59 56 82 12 73V49c39 6 53-20 64-50L1-190h34L92-34l54-156h33" id="L"/><path d="M24 0v-261h32V0H24" id="M"/><g id="a"><use transform="matrix(0.08641975308641975,0,0,0.08641975308641975,0,0)" xlink:href="#G"/><use transform="matrix(0.08641975308641975,0,0,0.08641975308641975,20.74074074074074,0)" xlink:href="#H"/><use transform="matrix(0.08641975308641975,0,0,0.08641975308641975,43.123456790123456,0)" xlink:href="#I"/><use transform="matrix(0.08641975308641975,0,0,0.08641975308641975,60.407407407407405,0)" xlink:href="#I"/><use transform="matrix(0.08641975308641975,0,0,0.08641975308641975,77.69135802469135,0)" xlink:href="#J"/><use transform="matrix(0.08641975308641975,0,0,0.08641975308641975,94.9753086419753,0)" xlink:href="#K"/><use transform="matrix(0.08641975308641975,0,0,0.08641975308641975,110.53086419753086,0)" xlink:href="#L"/><use transform="matrix(0.08641975308641975,0,0,0.08641975308641975,126.08641975308642,0)" xlink:href="#M"/><use transform="matrix(0.08641975308641975,0,0,0.08641975308641975,132.91358024691357,0)" xlink:href="#I"/></g><path d="M205 0l-28-72H64L36 0H1l101-248h38L239 0h-34zm-38-99l-47-123c-12 45-31 82-46 123h93" id="N"/><path d="M177-190C167-65 218 103 67 71c-23-6-38-20-44-43l32-5c15 47 100 32 89-28v-30C133-14 115 1 83 1 29 1 15-40 15-95c0-56 16-97 71-98 29-1 48 16 59 35 1-10 0-23 2-32h30zM94-22c36 0 50-32 50-73 0-42-14-75-50-75-39 0-46 34-46 75s6 73 46 73" id="O"/><path d="M100-194c62-1 85 37 85 99 1 63-27 99-86 99S16-35 15-95c0-66 28-99 85-99zM99-20c44 1 53-31 53-75 0-43-8-75-51-75s-53 32-53 75 10 74 51 75" id="P"/><path d="M114-163C36-179 61-72 57 0H25l-1-190h30c1 12-1 29 2 39 6-27 23-49 58-41v29" id="Q"/><path d="M24-231v-30h32v30H24zM24 0v-190h32V0H24" id="R"/><path d="M59-47c-2 24 18 29 38 22v24C64 9 27 4 27-40v-127H5v-23h24l9-43h21v43h35v23H59v120" id="S"/><path d="M106-169C34-169 62-67 57 0H25v-261h32l-1 103c12-21 28-36 61-36 89 0 53 116 60 194h-32v-121c2-32-8-49-39-48" id="T"/><path d="M210-169c-67 3-38 105-44 169h-31v-121c0-29-5-50-35-48C34-165 62-65 56 0H25l-1-190h30c1 10-1 24 2 32 10-44 99-50 107 0 11-21 27-35 58-36 85-2 47 119 55 194h-31v-121c0-29-5-49-35-48" id="U"/><g id="b"><use transform="matrix(0.08641975308641975,0,0,0.08641975308641975,0,0)" xlink:href="#N"/><use transform="matrix(0.08641975308641975,0,0,0.08641975308641975,20.74074074074074,0)" xlink:href="#M"/><use transform="matrix(0.08641975308641975,0,0,0.08641975308641975,27.5679012345679,0)" xlink:href="#O"/><use transform="matrix(0.08641975308641975,0,0,0.08641975308641975,44.85185185185185,0)" xlink:href="#P"/><use transform="matrix(0.08641975308641975,0,0,0.08641975308641975,62.1358024691358,0)" xlink:href="#Q"/><use transform="matrix(0.08641975308641975,0,0,0.08641975308641975,72.41975308641975,0)" xlink:href="#R"/><use transform="matrix(0.08641975308641975,0,0,0.08641975308641975,79.24691358024691,0)" xlink:href="#S"/><use transform="matrix(0.08641975308641975,0,0,0.08641975308641975,87.88888888888889,0)" xlink:href="#T"/><use transform="matrix(0.08641975308641975,0,0,0.08641975308641975,105.17283950617283,0)" xlink:href="#U"/></g><path d="M87 75C49 33 22-17 22-94c0-76 28-126 65-167h31c-38 41-64 92-64 168S80 34 118 75H87" id="V"/><path d="M117-194c89-4 53 116 60 194h-32v-121c0-31-8-49-39-48C34-167 62-67 57 0H25l-1-190h30c1 10-1 24 2 32 11-22 29-35 61-36" id="W"/><g id="c"><use transform="matrix(0.06172839506172839,0,0,0.06172839506172839,0,0)" xlink:href="#V"/><use transform="matrix(0.06172839506172839,0,0,0.06172839506172839,7.345679012345679,0)" xlink:href="#G"/><use transform="matrix(0.06172839506172839,0,0,0.06172839506172839,22.160493827160494,0)" xlink:href="#I"/><use transform="matrix(0.06172839506172839,0,0,0.06172839506172839,34.50617283950617,0)" xlink:href="#K"/><use transform="matrix(0.06172839506172839,0,0,0.06172839506172839,45.61728395061728,0)" xlink:href="#S"/><use transform="matrix(0.06172839506172839,0,0,0.06172839506172839,51.79012345679012,0)" xlink:href="#R"/><use transform="matrix(0.06172839506172839,0,0,0.06172839506172839,56.666666666666664,0)" xlink:href="#P"/><use transform="matrix(0.06172839506172839,0,0,0.06172839506172839,69.01234567901234,0)" xlink:href="#W"/></g><path d="M54-142c48-35 137-8 131 61C196 18 31 33 14-55l32-4c7 23 22 37 52 37 35-1 51-22 54-58 4-55-73-65-99-34H22l8-134h141v27H59" id="X"/><path d="M33 0v-38h34V0H33" id="Y"/><path d="M101-251c82-7 93 87 43 132L82-64C71-53 59-42 53-27h129V0H18c2-99 128-94 128-182 0-28-16-43-45-43s-46 15-49 41l-32-3c6-41 34-60 81-64" id="Z"/><path d="M33-261c38 41 65 92 65 168S71 34 33 75H2C39 34 66-17 66-93S39-220 2-261h31" id="aa"/><g id="d"><use transform="matrix(0.06172839506172839,0,0,0.06172839506172839,0,0)" xlink:href="#X"/><use transform="matrix(0.06172839506172839,0,0,0.06172839506172839,12.345679012345679,0)" xlink:href="#Y"/><use transform="matrix(0.06172839506172839,0,0,0.06172839506172839,18.51851851851852,0)" xlink:href="#Z"/><use transform="matrix(0.06172839506172839,0,0,0.06172839506172839,30.864197530864196,0)" xlink:href="#aa"/></g><path d="M63-220v92h138v28H63V0H30v-248h175v28H63" id="ab"/><g id="e"><use transform="matrix(0.08641975308641975,0,0,0.08641975308641975,0,0)" xlink:href="#ab"/><use transform="matrix(0.08641975308641975,0,0,0.08641975308641975,18.925925925925924,0)" xlink:href="#M"/><use transform="matrix(0.08641975308641975,0,0,0.08641975308641975,25.75308641975308,0)" xlink:href="#R"/><use transform="matrix(0.08641975308641975,0,0,0.08641975308641975,32.58024691358024,0)" xlink:href="#J"/><use transform="matrix(0.08641975308641975,0,0,0.08641975308641975,49.86419753086418,0)" xlink:href="#J"/><use transform="matrix(0.08641975308641975,0,0,0.08641975308641975,67.14814814814814,0)" xlink:href="#R"/><use transform="matrix(0.08641975308641975,0,0,0.08641975308641975,73.9753086419753,0)" xlink:href="#W"/><use transform="matrix(0.08641975308641975,0,0,0.08641975308641975,91.25925925925925,0)" xlink:href="#O"/></g><path d="M127-220V0H93v-220H8v-28h204v28h-85" id="ac"/><path d="M101-234c-31-9-42 10-38 44h38v23H63V0H32v-167H5v-23h27c-7-52 17-82 69-68v24" id="ad"/><path d="M141-36C126-15 110 5 73 4 37 3 15-17 15-53c-1-64 63-63 125-63 3-35-9-54-41-54-24 1-41 7-42 31l-33-3c5-37 33-52 76-52 45 0 72 20 72 64v82c-1 20 7 32 28 27v20c-31 9-61-2-59-35zM48-53c0 20 12 33 32 33 41-3 63-29 60-74-43 2-92-5-92 41" id="ae"/><path d="M135-143c-3-34-86-38-87 0 15 53 115 12 119 90S17 21 10-45l28-5c4 36 97 45 98 0-10-56-113-15-118-90-4-57 82-63 122-42 12 7 21 19 24 35" id="af"/><g id="f"><use transform="matrix(0.08641975308641975,0,0,0.08641975308641975,0,0)" xlink:href="#ac"/><use transform="matrix(0.08641975308641975,0,0,0.08641975308641975,15.469135802469134,0)" xlink:href="#P"/><use transform="matrix(0.08641975308641975,0,0,0.08641975308641975,32.75308641975308,0)" xlink:href="#J"/><use transform="matrix(0.08641975308641975,0,0,0.08641975308641975,50.03703703703703,0)" xlink:href="#ad"/><use transform="matrix(0.08641975308641975,0,0,0.08641975308641975,58.679012345679006,0)" xlink:href="#ae"/><use transform="matrix(0.08641975308641975,0,0,0.08641975308641975,75.96296296296296,0)" xlink:href="#W"/><use transform="matrix(0.08641975308641975,0,0,0.08641975308641975,93.24691358024691,0)" xlink:href="#af"/></g><path d="M155-56V0h-30v-56H8v-25l114-167h33v167h35v25h-35zm-30-156c-27 46-58 90-88 131h88v-131" id="ag"/><g id="g"><use transform="matrix(0.06172839506172839,0,0,0.06172839506172839,0,0)" xlink:href="#X"/><use transform="matrix(0.06172839506172839,0,0,0.06172839506172839,12.345679012345679,0)" xlink:href="#Y"/><use transform="matrix(0.06172839506172839,0,0,0.06172839506172839,18.51851851851852,0)" xlink:href="#ag"/><use transform="matrix(0.06172839506172839,0,0,0.06172839506172839,30.864197530864196,0)" xlink:href="#aa"/></g><path d="M160-131c35 5 61 23 61 61C221 17 115-2 30 0v-248c76 3 177-17 177 60 0 33-19 50-47 57zm-97-11c50-1 110 9 110-42 0-47-63-36-110-37v79zm0 115c55-2 124 14 124-45 0-56-70-42-124-44v89" id="ah"/><path d="M84 4C-5 8 30-112 23-190h32v120c0 31 7 50 39 49 72-2 45-101 50-169h31l1 190h-30c-1-10 1-25-2-33-11 22-28 36-60 37" id="ai"/><g id="h"><use transform="matrix(0.08641975308641975,0,0,0.08641975308641975,0,0)" xlink:href="#ah"/><use transform="matrix(0.08641975308641975,0,0,0.08641975308641975,20.74074074074074,0)" xlink:href="#M"/><use transform="matrix(0.08641975308641975,0,0,0.08641975308641975,27.5679012345679,0)" xlink:href="#ai"/><use transform="matrix(0.08641975308641975,0,0,0.08641975308641975,44.85185185185185,0)" xlink:href="#I"/></g><g id="i"><use transform="matrix(0.08641975308641975,0,0,0.08641975308641975,0,0)" xlink:href="#ab"/><use transform="matrix(0.08641975308641975,0,0,0.08641975308641975,18.925925925925924,0)" xlink:href="#ae"/><use transform="matrix(0.08641975308641975,0,0,0.08641975308641975,36.20987654320987,0)" xlink:href="#K"/><use transform="matrix(0.08641975308641975,0,0,0.08641975308641975,51.76543209876543,0)" xlink:href="#I"/></g><path d="M115-194c53 0 69 39 70 98 0 66-23 100-70 100C84 3 66-7 56-30L54 0H23l1-261h32v101c10-23 28-34 59-34zm-8 174c40 0 45-34 45-75 0-40-5-75-45-74-42 0-51 32-51 76 0 43 10 73 51 73" id="aj"/><path d="M85-194c31 0 48 13 60 33l-1-100h32l1 261h-30c-2-10 0-23-3-31C134-8 116 4 85 4 32 4 16-35 15-94c0-66 23-100 70-100zm9 24c-40 0-46 34-46 75 0 40 6 74 45 74 42 0 51-32 51-76 0-42-9-74-50-73" id="ak"/><path d="M108 0H70L1-190h34L89-25l56-165h34" id="al"/><g id="j"><use transform="matrix(0.08641975308641975,0,0,0.08641975308641975,0,0)" xlink:href="#G"/><use transform="matrix(0.08641975308641975,0,0,0.08641975308641975,20.74074074074074,0)" xlink:href="#ai"/><use transform="matrix(0.08641975308641975,0,0,0.08641975308641975,38.02469135802469,0)" xlink:href="#aj"/><use transform="matrix(0.08641975308641975,0,0,0.08641975308641975,55.30864197530864,0)" xlink:href="#ak"/><use transform="matrix(0.08641975308641975,0,0,0.08641975308641975,72.59259259259258,0)" xlink:href="#R"/><use transform="matrix(0.08641975308641975,0,0,0.08641975308641975,79.41975308641975,0)" xlink:href="#al"/><use transform="matrix(0.08641975308641975,0,0,0.08641975308641975,94.9753086419753,0)" xlink:href="#R"/><use transform="matrix(0.08641975308641975,0,0,0.08641975308641975,101.80246913580247,0)" xlink:href="#af"/><use transform="matrix(0.08641975308641975,0,0,0.08641975308641975,117.35802469135801,0)" xlink:href="#R"/><use transform="matrix(0.08641975308641975,0,0,0.08641975308641975,124.1851851851852,0)" xlink:href="#P"/><use transform="matrix(0.08641975308641975,0,0,0.08641975308641975,141.46913580246914,0)" xlink:href="#W"/></g><g id="k"><use transform="matrix(0.06172839506172839,0,0,0.06172839506172839,0,0)" xlink:href="#X"/><use transform="matrix(0.06172839506172839,0,0,0.06172839506172839,12.345679012345679,0)" xlink:href="#Y"/><use transform="matrix(0.06172839506172839,0,0,0.06172839506172839,18.51851851851852,0)" xlink:href="#X"/><use transform="matrix(0.06172839506172839,0,0,0.06172839506172839,30.864197530864196,0)" xlink:href="#aa"/></g><g id="l"><use transform="matrix(0.08641975308641975,0,0,0.08641975308641975,0,0)" xlink:href="#ah"/><use transform="matrix(0.08641975308641975,0,0,0.08641975308641975,20.74074074074074,0)" xlink:href="#M"/><use transform="matrix(0.08641975308641975,0,0,0.08641975308641975,27.5679012345679,0)" xlink:href="#ai"/><use transform="matrix(0.08641975308641975,0,0,0.08641975308641975,44.85185185185185,0)" xlink:href="#I"/></g><path d="M209 0H11v-25l151-195H24v-28h176v25L50-27h159V0" id="am"/><path d="M47-170H22l-4-78h33" id="an"/><g id="m"><use transform="matrix(0.08641975308641975,0,0,0.08641975308641975,0,0)" xlink:href="#am"/><use transform="matrix(0.08641975308641975,0,0,0.08641975308641975,18.925925925925924,0)" xlink:href="#an"/><use transform="matrix(0.08641975308641975,0,0,0.08641975308641975,24.80246913580247,0)" xlink:href="#af"/></g><path d="M126-127c33 6 58 20 58 59 0 88-139 92-164 29-3-8-5-16-6-25l32-3c6 27 21 44 54 44 32 0 52-15 52-46 0-38-36-46-79-43v-28c39 1 72-4 72-42 0-27-17-43-46-43-28 0-47 15-49 41l-32-3c6-42 35-63 81-64 48-1 79 21 79 65 0 36-21 52-52 59" id="ao"/><g id="n"><use transform="matrix(0.06172839506172839,0,0,0.06172839506172839,0,0)" xlink:href="#X"/><use transform="matrix(0.06172839506172839,0,0,0.06172839506172839,12.345679012345679,0)" xlink:href="#Y"/><use transform="matrix(0.06172839506172839,0,0,0.06172839506172839,18.51851851851852,0)" xlink:href="#ao"/><use transform="matrix(0.06172839506172839,0,0,0.06172839506172839,30.864197530864196,0)" xlink:href="#aa"/></g><path d="M54-68v-132l118 66" id="ap"/><use transform="matrix(0.07407407407407408,0,0,0.07407407407407408,0,0)" xlink:href="#ap" id="o"/><path d="M233-177c-1 41-23 64-60 70L243 0h-38l-65-103H63V0H30v-248c88 3 205-21 203 71zM63-129c60-2 137 13 137-47 0-61-80-42-137-45v92" id="aq"/><g id="p"><use transform="matrix(0.07407407407407408,0,0,0.07407407407407408,0,0)" xlink:href="#aq"/><use transform="matrix(0.07407407407407408,0,0,0.07407407407407408,19.185185185185187,0)" xlink:href="#I"/><use transform="matrix(0.07407407407407408,0,0,0.07407407407407408,34,0)" xlink:href="#af"/><use transform="matrix(0.07407407407407408,0,0,0.07407407407407408,47.33333333333334,0)" xlink:href="#S"/><use transform="matrix(0.07407407407407408,0,0,0.07407407407407408,54.74074074074075,0)" xlink:href="#Q"/><use transform="matrix(0.07407407407407408,0,0,0.07407407407407408,63.555555555555564,0)" xlink:href="#R"/><use transform="matrix(0.07407407407407408,0,0,0.07407407407407408,69.40740740740742,0)" xlink:href="#K"/><use transform="matrix(0.07407407407407408,0,0,0.07407407407407408,82.74074074074076,0)" xlink:href="#S"/><use transform="matrix(0.07407407407407408,0,0,0.07407407407407408,90.14814814814817,0)" xlink:href="#R"/><use transform="matrix(0.07407407407407408,0,0,0.07407407407407408,96.00000000000001,0)" xlink:href="#P"/><use transform="matrix(0.07407407407407408,0,0,0.07407407407407408,110.81481481481485,0)" xlink:href="#W"/></g><g id="q"><use transform="matrix(0.07407407407407408,0,0,0.07407407407407408,0,0)" xlink:href="#P"/><use transform="matrix(0.07407407407407408,0,0,0.07407407407407408,14.814814814814817,0)" xlink:href="#W"/></g><g id="r"><use transform="matrix(0.07407407407407408,0,0,0.07407407407407408,0,0)" xlink:href="#af"/><use transform="matrix(0.07407407407407408,0,0,0.07407407407407408,13.333333333333336,0)" xlink:href="#J"/><use transform="matrix(0.07407407407407408,0,0,0.07407407407407408,28.148148148148152,0)" xlink:href="#M"/><use transform="matrix(0.07407407407407408,0,0,0.07407407407407408,34.00000000000001,0)" xlink:href="#R"/><use transform="matrix(0.07407407407407408,0,0,0.07407407407407408,39.85185185185187,0)" xlink:href="#S"/><use transform="matrix(0.07407407407407408,0,0,0.07407407407407408,47.25925925925927,0)" xlink:href="#al"/><use transform="matrix(0.07407407407407408,0,0,0.07407407407407408,60.5925925925926,0)" xlink:href="#I"/><use transform="matrix(0.07407407407407408,0,0,0.07407407407407408,75.40740740740742,0)" xlink:href="#Q"/><use transform="matrix(0.07407407407407408,0,0,0.07407407407407408,84.22222222222223,0)" xlink:href="#S"/><use transform="matrix(0.07407407407407408,0,0,0.07407407407407408,91.62962962962965,0)" xlink:href="#R"/><use transform="matrix(0.07407407407407408,0,0,0.07407407407407408,97.48148148148148,0)" xlink:href="#K"/><use transform="matrix(0.07407407407407408,0,0,0.07407407407407408,110.81481481481481,0)" xlink:href="#I"/><use transform="matrix(0.07407407407407408,0,0,0.07407407407407408,125.62962962962962,0)" xlink:href="#af"/></g><g id="s"><use transform="matrix(0.07407407407407408,0,0,0.07407407407407408,0,0)" xlink:href="#af"/><use transform="matrix(0.07407407407407408,0,0,0.07407407407407408,13.333333333333336,0)" xlink:href="#J"/><use transform="matrix(0.07407407407407408,0,0,0.07407407407407408,28.148148148148152,0)" xlink:href="#M"/><use transform="matrix(0.07407407407407408,0,0,0.07407407407407408,34.00000000000001,0)" xlink:href="#R"/><use transform="matrix(0.07407407407407408,0,0,0.07407407407407408,39.85185185185187,0)" xlink:href="#S"/><use transform="matrix(0.07407407407407408,0,0,0.07407407407407408,47.25925925925927,0)" xlink:href="#al"/><use transform="matrix(0.07407407407407408,0,0,0.07407407407407408,60.5925925925926,0)" xlink:href="#I"/><use transform="matrix(0.07407407407407408,0,0,0.07407407407407408,75.40740740740742,0)" xlink:href="#Q"/><use transform="matrix(0.07407407407407408,0,0,0.07407407407407408,84.22222222222223,0)" xlink:href="#S"/><use transform="matrix(0.07407407407407408,0,0,0.07407407407407408,91.62962962962965,0)" xlink:href="#R"/><use transform="matrix(0.07407407407407408,0,0,0.07407407407407408,97.48148148148148,0)" xlink:href="#K"/><use transform="matrix(0.07407407407407408,0,0,0.07407407407407408,110.81481481481481,0)" xlink:href="#I"/><use transform="matrix(0.07407407407407408,0,0,0.07407407407407408,125.62962962962962,0)" xlink:href="#af"/></g><path d="M137 0h-34L2-248h35l83 218 83-218h36" id="ar"/><g id="t"><use transform="matrix(0.07407407407407408,0,0,0.07407407407407408,0,0)" xlink:href="#ar"/><use transform="matrix(0.07407407407407408,0,0,0.07407407407407408,16.296296296296298,0)" xlink:href="#I"/><use transform="matrix(0.07407407407407408,0,0,0.07407407407407408,31.111111111111114,0)" xlink:href="#Q"/><use transform="matrix(0.07407407407407408,0,0,0.07407407407407408,39.92592592592593,0)" xlink:href="#S"/><use transform="matrix(0.07407407407407408,0,0,0.07407407407407408,47.33333333333334,0)" xlink:href="#R"/><use transform="matrix(0.07407407407407408,0,0,0.07407407407407408,53.1851851851852,0)" xlink:href="#K"/><use transform="matrix(0.07407407407407408,0,0,0.07407407407407408,66.51851851851853,0)" xlink:href="#ae"/><use transform="matrix(0.07407407407407408,0,0,0.07407407407407408,81.33333333333334,0)" xlink:href="#M"/><use transform="matrix(0.07407407407407408,0,0,0.07407407407407408,87.18518518518519,0)" xlink:href="#M"/><use transform="matrix(0.07407407407407408,0,0,0.07407407407407408,93.03703703703704,0)" xlink:href="#L"/></g><path d="M16-82v-28h88v28H16" id="as"/><g id="u"><use transform="matrix(0.07407407407407408,0,0,0.07407407407407408,0,0)" xlink:href="#P"/><use transform="matrix(0.07407407407407408,0,0,0.07407407407407408,14.814814814814817,0)" xlink:href="#W"/><use transform="matrix(0.07407407407407408,0,0,0.07407407407407408,29.629629629629633,0)" xlink:href="#I"/><use transform="matrix(0.07407407407407408,0,0,0.07407407407407408,44.44444444444445,0)" xlink:href="#as"/><use transform="matrix(0.07407407407407408,0,0,0.07407407407407408,53.25925925925927,0)" xlink:href="#af"/><use transform="matrix(0.07407407407407408,0,0,0.07407407407407408,66.59259259259261,0)" xlink:href="#R"/><use transform="matrix(0.07407407407407408,0,0,0.07407407407407408,72.44444444444446,0)" xlink:href="#ak"/><use transform="matrix(0.07407407407407408,0,0,0.07407407407407408,87.25925925925927,0)" xlink:href="#I"/><use transform="matrix(0.07407407407407408,0,0,0.07407407407407408,102.07407407407408,0)" xlink:href="#ak"/></g><g id="v"><use transform="matrix(0.07407407407407408,0,0,0.07407407407407408,0,0)" xlink:href="#M"/><use transform="matrix(0.07407407407407408,0,0,0.07407407407407408,5.851851851851853,0)" xlink:href="#ae"/><use transform="matrix(0.07407407407407408,0,0,0.07407407407407408,20.666666666666668,0)" xlink:href="#L"/><use transform="matrix(0.07407407407407408,0,0,0.07407407407407408,34.00000000000001,0)" xlink:href="#P"/><use transform="matrix(0.07407407407407408,0,0,0.07407407407407408,48.814814814814824,0)" xlink:href="#ai"/><use transform="matrix(0.07407407407407408,0,0,0.07407407407407408,63.62962962962964,0)" xlink:href="#S"/></g><g id="w"><use transform="matrix(0.07407407407407408,0,0,0.07407407407407408,0,0)" xlink:href="#M"/><use transform="matrix(0.07407407407407408,0,0,0.07407407407407408,5.851851851851853,0)" xlink:href="#ae"/><use transform="matrix(0.07407407407407408,0,0,0.07407407407407408,20.666666666666668,0)" xlink:href="#L"/><use transform="matrix(0.07407407407407408,0,0,0.07407407407407408,34.00000000000001,0)" xlink:href="#P"/><use transform="matrix(0.07407407407407408,0,0,0.07407407407407408,48.814814814814824,0)" xlink:href="#ai"/><use transform="matrix(0.07407407407407408,0,0,0.07407407407407408,63.62962962962964,0)" xlink:href="#S"/></g><use transform="matrix(0.07407407407407408,0,0,0.07407407407407408,0,0)" xlink:href="#ap" id="x"/><g id="y"><use transform="matrix(0.07407407407407408,0,0,0.07407407407407408,0,0)" xlink:href="#aq"/><use transform="matrix(0.07407407407407408,0,0,0.07407407407407408,19.185185185185187,0)" xlink:href="#I"/><use transform="matrix(0.07407407407407408,0,0,0.07407407407407408,34,0)" xlink:href="#af"/><use transform="matrix(0.07407407407407408,0,0,0.07407407407407408,47.33333333333334,0)" xlink:href="#S"/><use transform="matrix(0.07407407407407408,0,0,0.07407407407407408,54.74074074074075,0)" xlink:href="#Q"/><use transform="matrix(0.07407407407407408,0,0,0.07407407407407408,63.555555555555564,0)" xlink:href="#R"/><use transform="matrix(0.07407407407407408,0,0,0.07407407407407408,69.40740740740742,0)" xlink:href="#K"/><use transform="matrix(0.07407407407407408,0,0,0.07407407407407408,82.74074074074076,0)" xlink:href="#S"/><use transform="matrix(0.07407407407407408,0,0,0.07407407407407408,90.14814814814817,0)" xlink:href="#I"/><use transform="matrix(0.07407407407407408,0,0,0.07407407407407408,104.96296296296299,0)" xlink:href="#ak"/></g><g id="z"><use transform="matrix(0.07407407407407408,0,0,0.07407407407407408,0,0)" xlink:href="#M"/><use transform="matrix(0.07407407407407408,0,0,0.07407407407407408,5.851851851851853,0)" xlink:href="#P"/><use transform="matrix(0.07407407407407408,0,0,0.07407407407407408,20.666666666666668,0)" xlink:href="#K"/><use transform="matrix(0.07407407407407408,0,0,0.07407407407407408,34.00000000000001,0)" xlink:href="#ae"/><use transform="matrix(0.07407407407407408,0,0,0.07407407407407408,48.814814814814824,0)" xlink:href="#S"/><use transform="matrix(0.07407407407407408,0,0,0.07407407407407408,56.22222222222223,0)" xlink:href="#R"/><use transform="matrix(0.07407407407407408,0,0,0.07407407407407408,62.07407407407408,0)" xlink:href="#P"/><use transform="matrix(0.07407407407407408,0,0,0.07407407407407408,76.8888888888889,0)" xlink:href="#W"/><use transform="matrix(0.07407407407407408,0,0,0.07407407407407408,91.70370370370371,0)" xlink:href="#af"/></g><g id="A"><use transform="matrix(0.07407407407407408,0,0,0.07407407407407408,0,0)" xlink:href="#P"/><use transform="matrix(0.07407407407407408,0,0,0.07407407407407408,14.814814814814817,0)" xlink:href="#ad"/></g><g id="B"><use transform="matrix(0.07407407407407408,0,0,0.07407407407407408,0,0)" xlink:href="#S"/><use transform="matrix(0.07407407407407408,0,0,0.07407407407407408,7.407407407407408,0)" xlink:href="#P"/><use transform="matrix(0.07407407407407408,0,0,0.07407407407407408,22.222222222222225,0)" xlink:href="#J"/><use transform="matrix(0.07407407407407408,0,0,0.07407407407407408,37.03703703703704,0)" xlink:href="#ad"/><use transform="matrix(0.07407407407407408,0,0,0.07407407407407408,44.44444444444444,0)" xlink:href="#ae"/><use transform="matrix(0.07407407407407408,0,0,0.07407407407407408,59.25925925925926,0)" xlink:href="#W"/><use transform="matrix(0.07407407407407408,0,0,0.07407407407407408,74.07407407407408,0)" xlink:href="#af"/></g><path d="M27 0v-27h64v-190l-56 39v-29l58-41h29v221h61V0H27" id="at"/><g id="C"><use transform="matrix(0.10493827160493828,0,0,0.10493827160493828,0,0)" xlink:href="#ak"/><use transform="matrix(0.10493827160493828,0,0,0.10493827160493828,20.987654320987655,0)" xlink:href="#as"/><use transform="matrix(0.10493827160493828,0,0,0.10493827160493828,33.47530864197531,0)" xlink:href="#at"/></g><use transform="matrix(0.10493827160493828,0,0,0.10493827160493828,0,0)" xlink:href="#as" id="D"/><g id="E"><use transform="matrix(0.10493827160493828,0,0,0.10493827160493828,0,0)" xlink:href="#af"/><use transform="matrix(0.10493827160493828,0,0,0.10493827160493828,18.88888888888889,0)" xlink:href="#R"/><use transform="matrix(0.10493827160493828,0,0,0.10493827160493828,27.179012345679013,0)" xlink:href="#ak"/><use transform="matrix(0.10493827160493828,0,0,0.10493827160493828,48.16666666666667,0)" xlink:href="#I"/><use transform="matrix(0.10493827160493828,0,0,0.10493827160493828,69.15432098765433,0)" xlink:href="#ak"/></g><g id="F"><use transform="matrix(0.10493827160493828,0,0,0.10493827160493828,0,0)" xlink:href="#M"/><use transform="matrix(0.10493827160493828,0,0,0.10493827160493828,8.290123456790123,0)" xlink:href="#ae"/><use transform="matrix(0.10493827160493828,0,0,0.10493827160493828,29.27777777777778,0)" xlink:href="#L"/><use transform="matrix(0.10493827160493828,0,0,0.10493827160493828,48.16666666666667,0)" xlink:href="#P"/><use transform="matrix(0.10493827160493828,0,0,0.10493827160493828,69.15432098765433,0)" xlink:href="#ai"/><use transform="matrix(0.10493827160493828,0,0,0.10493827160493828,90.14197530864199,0)" xlink:href="#S"/></g></defs></g></svg>